<svg width="1024" height="1024" viewBox="0 0 1024 1024" fill="none" xmlns="http://www.w3.org/2000/svg">
<path d="M516 426C554.108 426 585 395.108 585 357C585 318.892 554.108 288 516 288C477.892 288 447 318.892 447 357C447 395.108 477.892 426 516 426Z" fill="white"/>
<path d="M540 455C535.444 451.524 531.097 448.191 527.173 445.733C523.208 443.275 519.669 441.894 516 441.894C512.331 441.894 508.792 443.275 504.827 445.733C500.903 448.191 496.556 451.524 492 455C486.667 459.15 481.867 463.3 477.6 467.45C460.533 484.05 452 500.65 452 517.25C452 575.35 463.615 633.45 486.844 691.55C488.504 695.7 490.222 699.85 492 704C494.235 709.146 497.255 714.082 501.489 717.721C505.721 721.359 510.788 723.404 516 723.404C521.212 723.404 526.279 721.359 530.511 717.721C534.745 714.082 537.765 709.146 540 704C541.778 699.85 543.496 695.7 545.156 691.55C568.385 633.45 580 575.35 580 517.25C580 500.65 571.467 484.05 554.4 467.45C550.133 463.3 545.333 459.15 540 455Z" fill="white"/>
</svg>
