<svg width="1024" height="1024" viewBox="0 0 1024 1024" fill="none" xmlns="http://www.w3.org/2000/svg">
<path d="M516 442.257C546.335 442.257 570.926 417.665 570.926 387.33C570.926 356.995 546.335 332.404 516 332.404C485.665 332.404 461.074 356.995 461.074 387.33C461.074 417.665 485.665 442.257 516 442.257Z" fill="white"/>
<path d="M535.105 465.342C531.478 462.575 528.018 459.921 524.894 457.965C521.738 456.008 518.921 454.909 516 454.909C513.079 454.909 510.262 456.008 507.106 457.965C503.982 459.921 500.522 462.575 496.895 465.342C492.65 468.645 488.829 471.949 485.432 475.252C471.846 488.466 465.054 501.68 465.054 514.895C465.054 561.144 474.3 607.394 492.791 653.643C494.112 656.947 495.48 660.25 496.895 663.554C498.674 667.65 501.078 671.579 504.449 674.476C507.818 677.372 511.851 679 516 679C520.149 679 524.182 677.372 527.551 674.476C530.922 671.579 533.326 667.65 535.105 663.554C536.52 660.25 537.888 656.947 539.209 653.643C557.7 607.394 566.946 561.144 566.946 514.895C566.946 501.68 560.154 488.466 546.568 475.252C543.171 471.949 539.35 468.645 535.105 465.342Z" fill="white"/>
</svg>
