<svg width="1024" height="1024" viewBox="0 0 1024 1024" fill="none" xmlns="http://www.w3.org/2000/svg">
<path d="M139 829C173.242 829 201 801.242 201 767C201 732.758 173.242 705 139 705C104.758 705 77 732.758 77 767C77 801.242 104.758 829 139 829Z" fill="white" stroke="white" stroke-width="16"/>
<path d="M139 316C173.242 316 201 288.242 201 254C201 219.758 173.242 192 139 192C104.758 192 77 219.758 77 254C77 288.242 104.758 316 139 316Z" fill="white" stroke="white" stroke-width="16"/>
<path d="M628 988C662.242 988 690 960.242 690 926C690 891.758 662.242 864 628 864C593.758 864 566 891.758 566 926C566 960.242 593.758 988 628 988Z" fill="white" stroke="white" stroke-width="16"/>
<path d="M932 573C966.242 573 994 545.242 994 511C994 476.758 966.242 449 932 449C897.758 449 870 476.758 870 511C870 545.242 897.758 573 932 573Z" fill="white" stroke="white" stroke-width="16"/>
<path d="M628 159C662.242 159 690 131.242 690 97C690 62.7583 662.242 35 628 35C593.758 35 566 62.7583 566 97C566 131.242 593.758 159 628 159Z" fill="white" stroke="white" stroke-width="16"/>
</svg>
