<svg width="1024" height="1024" viewBox="0 0 1024 1024" fill="none" xmlns="http://www.w3.org/2000/svg">
<path d="M209.047 772.909C237.239 772.909 260.094 750.055 260.094 721.863C260.094 693.67 237.239 670.816 209.047 670.816C180.854 670.816 158 693.67 158 721.863C158 750.055 180.854 772.909 209.047 772.909Z" fill="white" stroke="white" stroke-width="16"/>
<path d="M209.047 350.538C237.239 350.538 260.094 327.683 260.094 299.491C260.094 271.298 237.239 248.444 209.047 248.444C180.854 248.444 158 271.298 158 299.491C158 327.683 180.854 350.538 209.047 350.538Z" fill="white" stroke="white" stroke-width="16"/>
<path d="M611.659 903.82C639.851 903.82 662.706 880.966 662.706 852.773C662.706 824.581 639.851 801.726 611.659 801.726C583.466 801.726 560.612 824.581 560.612 852.773C560.612 880.966 583.466 903.82 611.659 903.82Z" fill="white" stroke="white" stroke-width="16"/>
<path d="M861.953 562.135C890.146 562.135 913 539.281 913 511.088C913 482.896 890.146 460.041 861.953 460.041C833.761 460.041 810.906 482.896 810.906 511.088C810.906 539.281 833.761 562.135 861.953 562.135Z" fill="white" stroke="white" stroke-width="16"/>
<path d="M611.659 221.274C639.851 221.274 662.706 198.419 662.706 170.227C662.706 142.034 639.851 119.18 611.659 119.18C583.466 119.18 560.612 142.034 560.612 170.227C560.612 198.419 583.466 221.274 611.659 221.274Z" fill="white" stroke="white" stroke-width="16"/>
</svg>
